<mxfile host="app.diagrams.net" modified="2024-07-18T13:30:21.979Z" agent="Mozilla/5.0 (Windows NT 10.0; Win64; x64) AppleWebKit/537.36 (KHTML, like Gecko) Chrome/126.0.0.0 Safari/537.36" etag="j5Bi6vctx3okLyUYii8E" version="24.6.5" type="device">
  <diagram id="iFWBOWARisMdwK-snS9e" name="Page-1">
    <mxGraphModel dx="1434" dy="756" grid="1" gridSize="10" guides="1" tooltips="1" connect="1" arrows="1" fold="1" page="1" pageScale="1" pageWidth="850" pageHeight="1100" math="0" shadow="0">
      <root>
        <mxCell id="0" />
        <mxCell id="1" parent="0" />
        <mxCell id="RECVnlG9Mr_CNd6ZCDad-9" value="" style="edgeStyle=orthogonalEdgeStyle;rounded=0;orthogonalLoop=1;jettySize=auto;html=1;" parent="1" source="RECVnlG9Mr_CNd6ZCDad-1" target="RECVnlG9Mr_CNd6ZCDad-2" edge="1">
          <mxGeometry relative="1" as="geometry" />
        </mxCell>
        <mxCell id="RECVnlG9Mr_CNd6ZCDad-1" value="" style="ellipse;whiteSpace=wrap;html=1;" parent="1" vertex="1">
          <mxGeometry x="120" y="500" width="50" height="50" as="geometry" />
        </mxCell>
        <mxCell id="RECVnlG9Mr_CNd6ZCDad-10" value="no" style="edgeStyle=orthogonalEdgeStyle;rounded=0;orthogonalLoop=1;jettySize=auto;html=1;" parent="1" source="RECVnlG9Mr_CNd6ZCDad-2" target="RECVnlG9Mr_CNd6ZCDad-3" edge="1">
          <mxGeometry relative="1" as="geometry" />
        </mxCell>
        <mxCell id="RECVnlG9Mr_CNd6ZCDad-15" value="yes" style="edgeStyle=orthogonalEdgeStyle;rounded=0;orthogonalLoop=1;jettySize=auto;html=1;" parent="1" source="RECVnlG9Mr_CNd6ZCDad-2" target="RECVnlG9Mr_CNd6ZCDad-5" edge="1">
          <mxGeometry relative="1" as="geometry" />
        </mxCell>
        <mxCell id="RECVnlG9Mr_CNd6ZCDad-2" value="Input is divisible by 3 and 5 ?" style="rhombus;whiteSpace=wrap;html=1;fillColor=#0050ef;fontColor=#ffffff;strokeColor=#001DBC;" parent="1" vertex="1">
          <mxGeometry x="230" y="470" width="190" height="110" as="geometry" />
        </mxCell>
        <mxCell id="RECVnlG9Mr_CNd6ZCDad-11" value="no" style="edgeStyle=orthogonalEdgeStyle;rounded=0;orthogonalLoop=1;jettySize=auto;html=1;" parent="1" source="RECVnlG9Mr_CNd6ZCDad-3" target="RECVnlG9Mr_CNd6ZCDad-4" edge="1">
          <mxGeometry relative="1" as="geometry" />
        </mxCell>
        <mxCell id="RECVnlG9Mr_CNd6ZCDad-14" value="yes" style="edgeStyle=orthogonalEdgeStyle;rounded=0;orthogonalLoop=1;jettySize=auto;html=1;" parent="1" source="RECVnlG9Mr_CNd6ZCDad-3" target="RECVnlG9Mr_CNd6ZCDad-6" edge="1">
          <mxGeometry relative="1" as="geometry" />
        </mxCell>
        <mxCell id="RECVnlG9Mr_CNd6ZCDad-3" value="Input is divisible by 3 ?" style="rhombus;whiteSpace=wrap;html=1;fillColor=#0050ef;fontColor=#ffffff;strokeColor=#001DBC;" parent="1" vertex="1">
          <mxGeometry x="495" y="470" width="190" height="110" as="geometry" />
        </mxCell>
        <mxCell id="RECVnlG9Mr_CNd6ZCDad-12" value="no" style="edgeStyle=orthogonalEdgeStyle;rounded=0;orthogonalLoop=1;jettySize=auto;html=1;" parent="1" source="RECVnlG9Mr_CNd6ZCDad-4" target="RECVnlG9Mr_CNd6ZCDad-8" edge="1">
          <mxGeometry relative="1" as="geometry" />
        </mxCell>
        <mxCell id="RECVnlG9Mr_CNd6ZCDad-13" value="yes" style="edgeStyle=orthogonalEdgeStyle;rounded=0;orthogonalLoop=1;jettySize=auto;html=1;" parent="1" source="RECVnlG9Mr_CNd6ZCDad-4" target="RECVnlG9Mr_CNd6ZCDad-7" edge="1">
          <mxGeometry relative="1" as="geometry" />
        </mxCell>
        <mxCell id="RECVnlG9Mr_CNd6ZCDad-4" value="Input is divisible by 5 ?" style="rhombus;whiteSpace=wrap;html=1;fillColor=#0050ef;fontColor=#ffffff;strokeColor=#001DBC;" parent="1" vertex="1">
          <mxGeometry x="760" y="470" width="190" height="110" as="geometry" />
        </mxCell>
        <mxCell id="RECVnlG9Mr_CNd6ZCDad-5" value="Return &quot;FizzBuzz&quot;" style="rounded=1;whiteSpace=wrap;html=1;fillColor=#0050ef;fontColor=#ffffff;strokeColor=#001DBC;" parent="1" vertex="1">
          <mxGeometry x="265" y="650" width="120" height="60" as="geometry" />
        </mxCell>
        <mxCell id="RECVnlG9Mr_CNd6ZCDad-6" value="Return &quot;Fizz&quot;" style="rounded=1;whiteSpace=wrap;html=1;fillColor=#0050ef;fontColor=#ffffff;strokeColor=#001DBC;" parent="1" vertex="1">
          <mxGeometry x="530" y="650" width="120" height="60" as="geometry" />
        </mxCell>
        <mxCell id="RECVnlG9Mr_CNd6ZCDad-7" value="Return &quot;Buzz&quot;" style="rounded=1;whiteSpace=wrap;html=1;fillColor=#0050ef;fontColor=#ffffff;strokeColor=#001DBC;" parent="1" vertex="1">
          <mxGeometry x="795" y="650" width="120" height="60" as="geometry" />
        </mxCell>
        <mxCell id="RECVnlG9Mr_CNd6ZCDad-8" value="Return Input" style="rounded=1;whiteSpace=wrap;html=1;fillColor=#0050ef;fontColor=#ffffff;strokeColor=#001DBC;" parent="1" vertex="1">
          <mxGeometry x="1030" y="495" width="120" height="60" as="geometry" />
        </mxCell>
      </root>
    </mxGraphModel>
  </diagram>
</mxfile>
